<svg fill="none"
    height="24"
    viewBox="0 0 24 24"
    width="24"
    xmlns="http://www.w3.org/2000/svg">
    <g id="Property 1=Hide Password, Property 2=None">
        <path
            clip-rule="evenodd"
            d="M22.7874 19.2098L18.9872 16.3734C20.1057 15.4029 21.0496 14.2597 21.7802 12.9904C21.8526 12.8378 21.8931 12.673 21.8993 12.5052C21.8931 12.3375 21.8526 12.1726 21.7802 12.0201C19.925 8.43828 16.1463 6.16466 12 6.13546C10.2395 6.20416 8.51369 6.63059 6.93526 7.38692L2.56234 4.11769C2.46192 4.04715 2.34246 4.00627 2.21846 4C2.05084 4.00892 1.89408 4.08298 1.78388 4.20531L1.10695 5.04485C1.04036 5.14153 1.0033 5.25438 1 5.37046C1.00924 5.53237 1.08591 5.68378 1.21255 5.79023L21.4431 20.8875C21.5422 20.955 21.6591 20.994 21.7802 21C21.9478 20.9911 22.1046 20.917 22.2148 20.7947L22.8917 19.9552C22.9588 19.8586 22.9963 19.7458 23 19.6295C22.9908 19.4676 22.9141 19.3162 22.7874 19.2098ZM12 17.2809C9.41819 17.2751 7.27798 15.347 7.09231 12.8596L3.4816 10.1697C2.99772 10.7429 2.57456 11.3614 2.21846 12.0162C2.14605 12.1687 2.10556 12.3336 2.09932 12.5013C2.10502 12.6704 2.14552 12.8366 2.21846 12.9904C4.07385 16.5726 7.85324 18.8463 12 18.875C12.9029 18.8687 13.8014 18.7518 14.6738 18.5272L12.8935 17.1946C12.5984 17.245 12.2997 17.2739 12 17.2809ZM15.1179 13.4873L16.4718 14.4955L16.469 14.4916C16.7794 13.8688 16.9426 13.1872 16.947 12.4961C16.9455 9.85769 14.7315 7.71921 12 7.71777C10.8654 7.77384 9.77428 8.1569 8.8672 8.81754L11.3975 10.7111C11.4255 10.6021 11.4431 10.491 11.4503 10.3789C11.4335 10.0446 11.3231 9.72104 11.1308 9.44262C11.4286 9.36437 11.7349 9.32048 12.0433 9.31185C13.8404 9.31473 15.2959 10.7223 15.2966 12.4582V12.5C15.2828 12.8353 15.2227 13.1674 15.1179 13.4873Z"
            fill="#9E9E9E"
            fill-rule="evenodd"
            id="Shape" />
    </g>
</svg>
