<svg fill="none"
    height="24"
    viewBox="0 0 24 24"
    width="24"
    xmlns="http://www.w3.org/2000/svg">
    <g id="Property 1=Show Password, Property 2=None">
        <path
            clip-rule="evenodd"
            d="M21.8792 12.0057C19.9962 8.42361 16.2684 6 12 6C7.73159 6 4.00274 8.4253 2.12082 12.0061C2.05412 12.1347 2 12.3561 2 12.5002C2 12.6443 2.05412 12.8657 2.12082 12.9943C4.00379 16.5764 7.73159 19 12 19C16.2684 19 19.9973 16.5747 21.8792 12.9939C21.9459 12.8653 22 12.6439 22 12.4998C22 12.3557 21.9459 12.1343 21.8792 12.0057ZM12 17C9.23999 17 7 14.76 7 12C7 9.23999 9.23999 7 12 7C14.668 7 16.8501 9.09315 16.9926 11.7258L17 12.0024C17 14.6691 14.9079 16.8502 12.2765 16.9926L12 17ZM16 12.5C16 10.568 14.432 9 12.4918 9C12.2313 9.00364 11.817 9.0657 11.5669 9.1385C11.7547 9.39368 11.9071 9.85799 11.9071 10.1748C11.9071 11.14 11.1238 11.9234 10.1586 11.9234C9.84171 11.9234 9.37741 11.771 9.12222 11.5832C9.05474 11.8317 9 12.2424 9 12.5C9 14.432 10.568 16 12.5 16C14.432 16 16 14.432 16 12.5Z"
            fill="#9E9E9E"
            fill-rule="evenodd"
            id="&#239;&#129;&#174;" />
    </g>
</svg>
